/* XPM */
static char *result[] = {
/* columns rows colors chars-per-pixel */
"32 32 3 1 ",
"  c #241C0C",
". c #BE973E",
"X c None",
/* pixels */
"XXXXXXXXXXXXXX           XXXXXXX",
"XXXXXXXXXXXX    ........   XXXXX",
"XXXXXXXXXXXX   ...........  XXXX",
"XXXXXXXXXXX   .....  ......  XXX",
"XXXXXXXXXXX  .....     ..... XXX",
"XXXXXXXXXX  ....        ....  XX",
"XXXXXXXXXX  ...    XXX   ....  X",
"XXXXXXXXXX  ...   XXXXXX  ...  X",
"XXXXXXXXXX ...   XXXXXXXX  ...  ",
"XXXXXXXXXX ...   XXXXXXXXX .... ",
"XXXXXXXXXX  ... XXXXXXXXXX  ... ",
"XXXXXXXXXXX ...  XXXXXXXXX  ... ",
"XXXXXXXXXXX  ...  XXXXXXXX .... ",
"XXXXXXXXXXXX ....  XXXXXXX .... ",
"XXXXXX  XXXX .....   XXX  ..... ",
"XXXXX    XX  .......     .....  ",
"XXXXX ..    .................   ",
"XXX  X .. ......  ..........    ",
"X    X  .......     .......     ",
"  ..  X  .....                 X",
" ....   .....                 XX",
"X  .........      XXX        XXX",
"XX  .......     XXXXXXXXXXXXXXXX",
"XX  ......     XXXXXXXXXXXXXXXXX",
"XX ......     XXXXXXXXXXXXXXXXXX",
"X ......     XXXXXXXXXXXXXXXXXXX",
" ......     XXXXXXXXXXXXXXXXXXXX",
" .....     XXXXXXXXXXXXXXXXXXXXX",
" ....     XXXXXXXXXXXXXXXXXXXXXX",
"  ..     XXXXXXXXXXXXXXXXXXXXXXX",
"        XXXXXXXXXXXXXXXXXXXXXXXX",
"       XXXXXXXXXXXXXXXXXXXXXXXXX"
};
