/* XPM */
static char *result[] = {
/* columns rows colors chars-per-pixel */
"32 32 4 1 ",
"  c black",
". c #124957",
"X c #94C8D6",
"o c None",
/* pixels */
"oooooooooooooooooooooooooooooooo",
"oooooooooooooooooooooooooooooooo",
"oooooooooooooooooooooooooooooooo",
"oooooooooooooooooooooooooooooooo",
"oooooooooooooooooooooooooooooooo",
"ooooooooo            ooooooooooo",
"ooooooo                 oooooooo",
"ooooo                      ooooo",
"oooo                       ooooo",
"ooo                         oooo",
"ooo                         oooo",
"oo                           ooo",
"oo                           ooo",
"oo                           ooo",
"oo                          oooo",
"ooo                        ooooo",
"oooo                     ooooooo",
"ooooooo                       oo",
"oooooooooo            XXXXXX  oo",
"ooooooooooooooooo  XXXXXXXXXX oo",
"oooooooooooooo    XXXXXXXXXX  oo",
"oooooooooooo   XXXXXXXXXXXX   oo",
"oooooooooo   XXXXXXXXXXXXX .  oo",
"ooooooooo  XXXXXXXXXXXXX  .  ooo",
"oooooooo  XXXXXXXXXX     .  oooo",
"ooooooo  XXXXXXXXXX  ...   ooooo",
"oooooo  XXXXXXXXX   ...  ooooooo",
"oooooo XXXXXXXX   ..    oooooooo",
"oooooo XXXXXX   ..    oooooooooo",
"oooooo  X    ...   ooooooooooooo",
"ooooooo   ....   ooooooooooooooo",
"ooooooo        ooooooooooooooooo"
};
