/* XPM */
static char *result[] = {
/* columns rows colors chars-per-pixel */
"32 32 3 1 ",
"  c #283B35",
". c #8AA89F",
"X c #91A79F",
/* pixels */
"XXXXXXXXXXXXX  XXXXXXXXXXXXXX  X",
"XXXXXXXXXXXX  XXXXXXXXXXXXX  XXX",
"XXXXXXXXXXXX      XXXXXXXX  XXXX",
"XXXXXXXXXXX  XXXX  XXXXX  XXXXXX",
"XXXXXXXXXXX XXXXXXX      XXXXXXX",
"XXXXXXXXXXX XXXXXXXXXXXX    XXXX",
"XXXXXXXX    XXXXXXXXXXXXXXX XXXX",
"XXXXX   XXXXXXXXXXXXXXXXXXX XXXX",
"XXX   XXXXXXXXXXXXXXXXXXXXX XXXX",
"    . XXXXXXXXXXXXXXXXXXXX  XXXX",
"XXXX XXXXXXXXXXXXXXXXXXXX  XXXXX",
"XXXX XXXXXXXXXXXXXXXXXXXX XXXXX ",
"XXXX XXXXXXXXXXXXXXXXXXXX       ",
"XXXXX  XXXXXXXXXXXXXXX    XXXXXX",
"XXXXXXX     XXXXXXXX  XXX XXXXXX",
"XXXXXXXXXXXX         XXXX XXXXXX",
"XXXXXXXXXXX   XXXXXXXXXXX XXXXXX",
"XXXXXXXXX   XXXXXXXXXXXXX XXXXXX",
"XXXXXXXX  XXXXXXXXXXXXXXX   XXXX",
"XXXXXXX XXXXXXXXXXXXXXXX  X XXXX",
"XXXXXXX XXXXXXXXXXXXXX   XX XXXX",
"XXXXXXX  XXXXXXXXXXXX  XXXX    X",
"XXXXXXXX  XXXXXXXXX  XXXXXXXXX  ",
"XXXXXXXXX           XXXXXXXXXXXX",
"XXXXXXXXX  XXXXXXXX XXXXXXXXXXXX",
"XXXXXXXX  XXXXXXXXXX XXXXXXXXXXX",
"XXXXXXX  XXXXXXXXXXX XXXXXXXXXXX",
"XXXXXXX XXXXXXXXXXXXX XXXXXXXXXX",
"XXXXXXX XXXXXXXXXXXXXX  XXXXXXXX",
"XXXXXX  XXXXXXXXXXXXXXX XXXXXXXX",
"XXXX   XXXXXXXXXXXXXXX  XXXXXXXX",
"XXX  XXXXXXXXXXXXXXXXX XXXXXXXXX"
};
