/* XPM */
static char *result[] = {
/* columns rows colors chars-per-pixel */
"32 32 7 1 ",
"  c black",
". c #ED6023",
"X c #EB1D54",
"o c #1E3BBA",
"O c #EBE9CA",
"+ c white",
"@ c None",
/* pixels */
"@@@@@@@@@@@@@@@@@@@@@@@@@@@@@@@@",
"@@@@@@@              @@@@@@@@@@@",
"@@@@@@  OOOOOOOOOOOO  @@@@@@@@@@",
"@@@@@  OOOOOOOOOOOOOO  @@@@@@@@@",
"@@@@@  OO    OO     OO  @@@@@@@@",
"@@@@@  OOO OOOOOO OOOO  @@@@@@@@",
"@@@@@  OOOOOOOOOOOOOOO  @@@@@@@@",
"@@@@@  OOOO      OOOO  @@@@@@@@@",
"@@@@@@  OO  OOOO  OO  @@@@@@@@@@",
"@@@@@@@               @@@@@  @@@",
"@@@@@@  .           .  @@@ OO @@",
"@@@@@ O ..         .. O @ OOOO @",
"@@@@ OOO ..       ... OO   OOOO ",
"@@@ OOOO ...     .... OOOO  OO @",
"@@ OXOOO ....   ..... OOOOO   @@",
"@  OXXOO ..... ...... OOOOOO @@@",
" O  OOO .............. OOOO @@@@",
" OO  O  ..............   O @@@@@",
" OOO  @ .           .. @@ @@@@@@",
"@ OO @@   OOOOOOOOO  . @@@@@@@@@",
"@@  @@@ OOOOOOOOOOOO  @@@@@@@@@@",
"@@@@@@@ OOOOOOOOOOOOO @@@@@@@@@@",
"@@@@@@@    OOOOOOOO   @@@@@@@@@@",
"@@@@@@@ oo          o  @@@@@@@@@",
"@@@@@@@ oooooooooooooo @@@@@@@@@",
"@@@@@@  ooooo   oooooo  @@@@@@@@",
"@@@@@  ooooo  @  oooooo  @@@@@@@",
"@@@@@ oooooo @@@  oooooo @@@@@@@",
"@@@@@ oooooo @@@@ oooooo @@@@@@@",
"@@@@        @@@@@         @@@@@@",
"@@@@ +++++++ @@@@ +++++++ @@@@@@",
"@@@@         @@@@         @@@@@@"
};
