/* XPM */
static char *result[] = {
/* columns rows colors chars-per-pixel */
"32 32 4 1 ",
"  c black",
". c #8C5B1F",
"X c #C1904B",
"o c #CCB554",
/* pixels */
"                                ",
" XXXXXXXXXXXXXXXXXXXXXXXXXXXXXX ",
" XoooooooooooooooooooooooX....X ",
" XoooooooooooooooooooooooX....X ",
" XoooooooooooooooooooooooX....X ",
" XoooooooooooooooooooooooX....X ",
" XoooooooooooooooooooooooX....X ",
" XoooooooooooooooooooooooX....X ",
" XoooooooooooooooooooooooX....X ",
" XoooooooooooooooooooooooX....X ",
" XoooooooooooooooooooooooX....X ",
" XoooooooooooooooooooooooX....X ",
" XoooooooooooooooooooooooX....X ",
" XoooooooooooooooooooooooX....X ",
" XoooooooooooooooooooooooX....X ",
" XoooooooooooooooooooooooX....X ",
" XoooooooooooooooooooooooX....X ",
" XoooooooooooooooooooooooX....X ",
" XoooooooooooooooooooooooX....X ",
" XoooooooooooooooooooooooX....X ",
" XoooooooooooooooooooooooX....X ",
" XoooooooooooooooooooooooX....X ",
" XoooooooooooooooooooooooX....X ",
" XoooooooooooooooooooooooX....X ",
" XoooooooooooooooooooooooX....X ",
" XXXXXXXXXXXXXXXXXXXXXXXXXX...X ",
" X........................XX..X ",
" X.........................XX.X ",
" X..........................XXX ",
" X...........................XX ",
" XXXXXXXXXXXXXXXXXXXXXXXXXXXXXX ",
"                                "
};
